<?xml version="1.0" encoding="UTF-8" standalone="no"?>
<!-- Created with Inkscape (http://www.inkscape.org/) -->

<svg
   xmlns:dc="http://purl.org/dc/elements/1.1/"
   xmlns:cc="http://creativecommons.org/ns#"
   xmlns:rdf="http://www.w3.org/1999/02/22-rdf-syntax-ns#"
   xmlns:svg="http://www.w3.org/2000/svg"
   xmlns="http://www.w3.org/2000/svg"
   xmlns:sodipodi="http://sodipodi.sourceforge.net/DTD/sodipodi-0.dtd"
   xmlns:inkscape="http://www.inkscape.org/namespaces/inkscape"
   width="94.154266mm"
   height="94.154625mm"
   viewBox="0 0 94.154266 94.154625"
   version="1.1"
   id="svg8493"
   inkscape:version="0.92.1 r15371"
   sodipodi:docname="facebook.svg">
  <defs
     id="defs8487">
    <clipPath
       clipPathUnits="userSpaceOnUse"
       id="clipPath44">
      <path
         d="M 0,500 H 1024 V 0 H 0 Z"
         id="path42"
         inkscape:connector-curvature="0" />
    </clipPath>
  </defs>
  <sodipodi:namedview
     id="base"
     pagecolor="#ffffff"
     bordercolor="#666666"
     borderopacity="1.0"
     inkscape:pageopacity="0.0"
     inkscape:pageshadow="2"
     inkscape:zoom="0.35"
     inkscape:cx="-367.78496"
     inkscape:cy="43.644265"
     inkscape:document-units="mm"
     inkscape:current-layer="layer1"
     showgrid="false"
     inkscape:window-width="1920"
     inkscape:window-height="1016"
     inkscape:window-x="0"
     inkscape:window-y="27"
     inkscape:window-maximized="1" />
  <metadata
     id="metadata8490">
    <rdf:RDF>
      <cc:Work
         rdf:about="">
        <dc:format>image/svg+xml</dc:format>
        <dc:type
           rdf:resource="http://purl.org/dc/dcmitype/StillImage" />
        <dc:title></dc:title>
      </cc:Work>
    </rdf:RDF>
  </metadata>
  <g
     inkscape:label="Layer 1"
     inkscape:groupmode="layer"
     id="layer1"
     transform="translate(-17.93477,-66.226256)">
    <g
       transform="matrix(0.35277777,0,0,-0.35277777,-206.27413,202.90905)"
       id="g38">
      <g
         id="g40"
         clip-path="url(#clipPath44)">
        <g
           id="g46"
           transform="translate(887.7168,387.4473)">
          <path
             d="m 0,0 h -237.434 c -8.136,0 -14.73,-6.594 -14.73,-14.73 v -237.434 c 0,-8.135 6.594,-14.731 14.73,-14.731 h 127.827 v 103.356 h -34.782 v 40.28 h 34.782 v 29.705 c 0,34.472 21.054,53.243 51.806,53.243 14.731,0 27.391,-1.096 31.08,-1.586 v -36.026 l -21.328,-0.01 c -16.724,0 -19.963,-7.947 -19.963,-19.609 v -25.717 h 39.887 l -5.193,-40.28 H -68.012 V -266.895 H 0 c 8.135,0 14.73,6.596 14.73,14.731 V -14.73 C 14.73,-6.594 8.135,0 0,0"
             style="fill:#ffffff;fill-opacity:1;fill-rule:nonzero;stroke:none"
             id="path48"
             inkscape:connector-curvature="0" />
        </g>
      </g>
    </g>
  </g>
</svg>
