<?xml version="1.0" encoding="UTF-8" standalone="no"?>
<!-- Created with Inkscape (http://www.inkscape.org/) -->

<svg
   xmlns:dc="http://purl.org/dc/elements/1.1/"
   xmlns:cc="http://creativecommons.org/ns#"
   xmlns:rdf="http://www.w3.org/1999/02/22-rdf-syntax-ns#"
   xmlns:svg="http://www.w3.org/2000/svg"
   xmlns="http://www.w3.org/2000/svg"
   xmlns:sodipodi="http://sodipodi.sourceforge.net/DTD/sodipodi-0.dtd"
   xmlns:inkscape="http://www.inkscape.org/namespaces/inkscape"
   width="102.39375mm"
   height="20.108334mm"
   viewBox="0 0 102.39375 20.108334"
   version="1.1"
   id="svg8"
   inkscape:version="0.92.2 (5c3e80d, 2017-08-06)"
   sodipodi:docname="logoMobile.svg">
  <defs
     id="defs2" />
  <sodipodi:namedview
     id="base"
     pagecolor="#ffffff"
     bordercolor="#666666"
     borderopacity="1.0"
     inkscape:pageopacity="0.0"
     inkscape:pageshadow="2"
     inkscape:zoom="2.8"
     inkscape:cx="90.917434"
     inkscape:cy="65.383945"
     inkscape:document-units="mm"
     inkscape:current-layer="layer2"
     showgrid="false"
     inkscape:window-width="1920"
     inkscape:window-height="1053"
     inkscape:window-x="0"
     inkscape:window-y="27"
     inkscape:window-maximized="1" />
  <metadata
     id="metadata5">
    <rdf:RDF>
      <cc:Work
         rdf:about="">
        <dc:format>image/svg+xml</dc:format>
        <dc:type
           rdf:resource="http://purl.org/dc/dcmitype/StillImage" />
        <dc:title></dc:title>
      </cc:Work>
    </rdf:RDF>
  </metadata>
  <g
     inkscape:groupmode="layer"
     id="layer2"
     inkscape:label="BG"
     transform="translate(-3.2316902,-101.7375)">
    <path
       style="font-style:normal;font-variant:normal;font-weight:500;font-stretch:normal;font-size:10.05416679px;line-height:125%;font-family:Ubuntu;-inkscape-font-specification:'Ubuntu, Medium';font-variant-ligatures:normal;font-variant-caps:normal;font-variant-numeric:normal;font-feature-settings:normal;text-align:start;letter-spacing:0.10583333px;word-spacing:0px;writing-mode:lr-tb;text-anchor:start;fill:#fafafa;fill-opacity:1;stroke:none;stroke-width:0.26458332px;stroke-linecap:butt;stroke-linejoin:miter;stroke-opacity:1"
       d="m 52.845703,107.92383 c -0.748453,0 -1.343515,0.20666 -1.738281,0.63867 -0.388981,0.41954 -0.578125,1.00069 -0.578125,1.70703 v 5.62891 a 0.17399923,0.17399923 0 0 0 0.173828,0.17383 h 1.216797 a 0.17399923,0.17399923 0 0 0 0.173828,-0.17383 v -4.06836 h 1.736328 a 0.17399923,0.17399923 0 0 0 0.173828,-0.17383 v -1.01563 A 0.17399923,0.17399923 0 0 0 53.830078,110.4668 H 52.09375 v -0.17774 c 0,-0.15562 0.01689,-0.29593 0.04687,-0.42187 a 0.17399923,0.17399923 0 0 0 0,-0.002 c 0.02887,-0.12703 0.07496,-0.22358 0.136719,-0.30078 0.06058,-0.0757 0.140287,-0.1358 0.25,-0.17968 a 0.17399923,0.17399923 0 0 0 0.0078,-0.004 c 0.105071,-0.0473 0.243157,-0.0742 0.419922,-0.0742 0.162778,0 0.309936,0.0166 0.44336,0.0469 a 0.17399923,0.17399923 0 0 0 0.002,0 c 0.143961,0.0313 0.26595,0.0724 0.365234,0.11914 a 0.17399923,0.17399923 0 0 0 0.244141,-0.11914 l 0.232422,-1.00586 a 0.17399923,0.17399923 0 0 0 -0.109376,-0.20118 c -0.120477,-0.0452 -0.284994,-0.0895 -0.5,-0.13671 -0.232057,-0.058 -0.494694,-0.0859 -0.787109,-0.0859 z m 32.498047,0 a 0.17399923,0.17399923 0 0 0 -0.02344,0.002 l -1.216796,0.20117 a 0.17399923,0.17399923 0 0 0 -0.144532,0.17188 v 7.43945 a 0.17399923,0.17399923 0 0 0 0.123047,0.16602 c 0.251756,0.0769 0.558619,0.14584 0.925781,0.20703 a 0.17399923,0.17399923 0 0 0 0.002,0 c 0.3788,0.062 0.772914,0.0918 1.183593,0.0918 0.433453,0 0.826434,-0.0669 1.177735,-0.20312 0.349198,-0.1354 0.652436,-0.3339 0.898437,-0.59375 0.25139,-0.25857 0.441916,-0.56823 0.570313,-0.92383 0.13571,-0.36428 0.201172,-0.76769 0.201172,-1.20703 -10e-7,-0.42247 -0.05513,-0.81193 -0.167969,-1.16601 -0.106108,-0.36077 -0.264668,-0.67298 -0.474609,-0.9336 -0.210182,-0.26091 -0.475883,-0.46554 -0.792969,-0.60351 l -0.0059,-0.002 c -0.312705,-0.14435 -0.667201,-0.21484 -1.054687,-0.21484 -0.262721,0 -0.507499,0.0324 -0.732422,0.0977 a 0.17399923,0.17399923 0 0 0 -0.002,0.002 c -0.111097,0.0333 -0.192156,0.0753 -0.287109,0.11328 v -2.4707 A 0.17399923,0.17399923 0 0 0 85.34375,107.92383 Z M 6.1855469,108.6875 c -0.2853031,0 -0.6098981,0.009 -0.9746094,0.0293 -0.370819,0.0206 -0.7224316,0.0684 -1.0546875,0.14453 a 0.17399923,0.17399923 0 0 0 -0.1347656,0.16992 v 6.76758 a 0.17399923,0.17399923 0 0 0 0.1347656,0.16992 c 0.3306559,0.0758 0.6762758,0.12379 1.0390625,0.14453 0.3584716,0.0271 0.6833319,0.041 0.9707031,0.041 0.6040283,0 1.1558084,-0.0728 1.65625,-0.21875 a 0.17399923,0.17399923 0 0 0 0.00195,-0.002 c 0.5090021,-0.15339 0.9463885,-0.38477 1.3085937,-0.69726 0.3688101,-0.31917 0.6543263,-0.71478 0.8515625,-1.17969 a 0.17399923,0.17399923 0 0 0 0,-0.002 c 0.1983752,-0.47468 0.2949222,-1.02329 0.2949222,-1.64453 0,-0.63352 -0.09637,-1.18552 -0.2949222,-1.6543 v -0.002 C 9.7876444,110.28366 9.5019152,109.88997 9.1328093,109.58382 8.7705263,109.27127 8.335186,109.04415 7.832028,108.90414 h -0.00195 c -0.5001844,-0.14568 -1.0481414,-0.2168 -1.6445312,-0.2168 z m 19.8437501,0 c -0.262614,8.2e-4 -0.637457,0.01 -0.5,0.01 -0.972373,0.0769 0.121705,-0.0744 -1.044922,0.0918 -0.168347,0.0203 -0.326955,0.0431 -0.476563,0.0703 a 0.17399923,0.17399923 0 0 0 -0.142578,0.17187 v 6.76758 a 0.17399923,0.17399923 0 0 0 0.128907,0.16797 c 0.295505,0.0774 0.634119,0.12583 1.017578,0.14648 0.379171,0.0271 0.755782,0.041 1.128906,0.041 1.098274,0 1.931251,-0.17605 2.5,-0.5625 a 0.17399923,0.17399923 0 0 0 0.002,-0.002 c 0.567006,-0.39254 0.859375,-1.00209 0.859375,-1.76172 0,-0.45019 -0.110043,-0.8397 -0.335937,-1.14843 -0.170467,-0.23297 -0.429004,-0.40325 -0.726563,-0.54492 0.175661,-0.12592 0.332209,-0.26697 0.447266,-0.44141 l 0.002,-0.002 c 0.181027,-0.265 0.271484,-0.58326 0.271484,-0.93946 0,-0.37979 -0.08108,-0.71115 -0.248047,-0.98437 -0.163284,-0.2672 -0.394502,-0.48612 -0.685547,-0.64649 h -0.002 c -0.28152,-0.15853 -0.611613,-0.26906 -0.988281,-0.33203 -0.374115,-0.0693 -0.775807,-0.10156 -1.207031,-0.10156 z m 15.421875,0.19141 a 0.17399923,0.17399923 0 0 0 -0.02344,0.002 l -1.216796,0.20117 a 0.17399923,0.17399923 0 0 0 -0.144532,0.17188 v 4.55468 c 0,0.35838 0.0301,0.68071 0.09375,0.97071 a 0.17399923,0.17399923 0 0 0 0,0.002 c 0.06506,0.28913 0.179829,0.54564 0.34375,0.76172 a 0.17399923,0.17399923 0 0 0 0.002,0.002 c 0.167209,0.21282 0.3923,0.37616 0.664063,0.48633 0.282041,0.11133 0.619005,0.16211 1.009766,0.16211 0.320583,0 0.604777,-0.0343 0.853515,-0.10742 0.231269,-0.0614 0.421133,-0.12273 0.572266,-0.1875 a 0.17399923,0.17399923 0 0 0 0.101562,-0.19532 l -0.201172,-0.96484 a 0.17399923,0.17399923 0 0 0 -0.234375,-0.12695 c -0.09022,0.0361 -0.22236,0.0792 -0.392578,0.125 a 0.17399923,0.17399923 0 0 0 -0.002,0 c -0.148577,0.0416 -0.326229,0.0645 -0.535156,0.0645 -0.289103,0 -0.448512,-0.0737 -0.542969,-0.20117 -0.0953,-0.12865 -0.167969,-0.3989 -0.167969,-0.80273 v -1.9668 H 43.32617 A 0.17399923,0.17399923 0 0 0 43.5,111.65625 v -1.01563 a 0.17399923,0.17399923 0 0 0 -0.173828,-0.17382 h -1.695313 v -1.41407 a 0.17399923,0.17399923 0 0 0 -0.179687,-0.17382 z m -15.261719,1.1914 c 0.43793,0 0.781648,0.0695 1.029297,0.19336 a 0.17399923,0.17399923 0 0 0 0.002,0 c 0.238904,0.11668 0.333985,0.27309 0.333985,0.5586 0,0.30842 -0.09559,0.4743 -0.314454,0.58789 -4.79e-4,2.3e-4 -0.0015,-2.4e-4 -0.002,0 -9.3e-4,4.8e-4 -0.001,10e-4 -0.002,0.002 -0.238656,0.11543 -0.59233,0.18164 -1.05664,0.18164 h -0.720704 v -1.49609 c 0.07025,-0.006 0.132631,-0.0138 0.216797,-0.0176 0.150829,-0.007 0.321124,-0.01 0.513672,-0.01 z m -19.923828,0.0605 c 0.8294925,0 1.4088966,0.20157 1.7753906,0.58008 0.3710594,0.38323 0.5644531,0.93826 0.5644532,1.69922 0,0.74611 -0.1978119,1.30078 -0.5839844,1.69922 -0.3741666,0.38623 -0.9532421,0.58984 -1.7753906,0.58984 h -0.484375 -0.00977 c -0.048595,-0.003 -0.076981,-0.005 -0.1171875,-0.008 v -4.53907 c 0.1538152,-0.0119 0.330812,-0.0215 0.6308594,-0.0215 z m 7.431641,0.20508 c -0.329852,0 -0.655443,0.0658 -0.96875,0.19336 -0.318016,0.12286 -0.601433,0.31104 -0.845704,0.5625 -0.245838,0.24643 -0.44224,0.55638 -0.589843,0.92187 a 0.17399923,0.17399923 0 0 0 0,0.002 c -0.143311,0.37262 -0.212891,0.79998 -0.212891,1.2793 0,0.41099 0.05461,0.7942 0.167969,1.14844 a 0.17399923,0.17399923 0 0 0 0,0.002 c 0.114124,0.34951 0.291836,0.65954 0.529297,0.92578 a 0.17399923,0.17399923 0 0 0 0,0.002 c 0.240308,0.26215 0.546556,0.46633 0.908203,0.61523 a 0.17399923,0.17399923 0 0 0 0.002,0.002 c 0.366493,0.14373 0.790207,0.2129 1.269531,0.21289 0.186865,0 0.37106,-0.0103 0.552735,-0.0312 0.175921,-0.0203 0.339946,-0.0459 0.492187,-0.0801 l 0.0098,-0.002 c 0.155454,-0.0274 0.293741,-0.0609 0.412109,-0.0957 a 0.17399923,0.17399923 0 0 0 0.0059,0 c 0.124314,-0.0414 0.223876,-0.0787 0.304687,-0.11914 a 0.17399923,0.17399923 0 0 0 0.09375,-0.18359 l -0.160156,-0.9961 a 0.17399923,0.17399923 0 0 0 -0.240235,-0.13281 c -0.124294,0.0533 -0.311597,0.10997 -0.552734,0.16211 -0.22665,0.0504 -0.481109,0.0762 -0.765625,0.0762 -0.476428,0 -0.815756,-0.10764 -1.042969,-0.30078 -0.181863,-0.16446 -0.283277,-0.39676 -0.33789,-0.67969 h 3.25 a 0.17399923,0.17399923 0 0 0 0.173828,-0.15625 c 0.007,-0.07 0.0094,-0.14526 0.0098,-0.22461 v -0.0137 c 0.0062,-0.0847 0.0098,-0.16218 0.0098,-0.23047 0,-0.91734 -0.211403,-1.63543 -0.658203,-2.12695 -0.436606,-0.48754 -1.056497,-0.73242 -1.816406,-0.73242 z m 22.884765,0 c -0.344293,0 -0.668259,0.0263 -0.974609,0.082 -0.300163,0.0546 -0.530279,0.11116 -0.699219,0.16992 a 0.17399923,0.17399923 0 0 0 -0.115234,0.18945 l 0.15039,0.98438 a 0.17399923,0.17399923 0 0 0 0.230469,0.13867 c 0.132854,-0.0483 0.315085,-0.0937 0.542969,-0.13281 0.223183,-0.0383 0.472953,-0.0586 0.746094,-0.0586 0.193021,0 0.34195,0.0262 0.447265,0.0684 a 0.17399923,0.17399923 0 0 0 0.002,0 c 0.116539,0.0444 0.198577,0.10564 0.257813,0.17969 a 0.17399923,0.17399923 0 0 0 0.0098,0.01 c 0.0682,0.0734 0.114009,0.15666 0.140624,0.25781 0.02871,0.10907 0.04253,0.22578 0.04297,0.35156 -0.09137,-0.017 -0.18599,-0.0387 -0.273437,-0.0469 -0.155287,-0.0212 -0.305267,-0.0312 -0.447266,-0.0312 -0.298775,-1e-5 -0.588952,0.031 -0.86914,0.0937 -0.280686,0.0576 -0.532772,0.15921 -0.753907,0.30664 -0.223299,0.14195 -0.403786,0.33093 -0.537109,0.56054 a 0.17399923,0.17399923 0 0 0 -0.002,0.004 c -0.130767,0.23845 -0.19336,0.52375 -0.19336,0.84766 -10e-7,0.33338 0.05145,0.62472 0.166016,0.86914 a 0.17399923,0.17399923 0 0 0 0.002,0.004 c 0.118641,0.23729 0.283651,0.43386 0.486328,0.58399 a 0.17399923,0.17399923 0 0 0 0.002,0 c 0.208306,0.14879 0.455738,0.25752 0.736329,0.32226 0.276464,0.0638 0.576445,0.0937 0.902343,0.0937 0.481653,0 0.914705,-0.03 1.300781,-0.0918 0.384031,-0.0539 0.673127,-0.10059 0.869141,-0.14258 a 0.17399923,0.17399923 0 0 0 0.136719,-0.16992 v -3.1875 c 0,-0.3204 -0.03931,-0.61753 -0.117188,-0.88868 -0.07281,-0.28397 -0.202799,-0.53223 -0.388672,-0.73437 l -0.002,-0.002 c -0.182586,-0.20464 -0.427022,-0.36255 -0.722656,-0.47071 -0.300704,-0.11002 -0.659631,-0.16015 -1.076172,-0.16015 z m 20.001953,0 c -0.344293,0 -0.670079,0.0263 -0.976562,0.082 -0.300163,0.0546 -0.530279,0.11116 -0.699219,0.16992 a 0.17399923,0.17399923 0 0 0 -0.115234,0.19141 l 0.152343,0.98437 a 0.17399923,0.17399923 0 0 0 0.230469,0.13672 c 0.132854,-0.0483 0.315085,-0.0937 0.542969,-0.13281 0.223342,-0.0383 0.471,-0.0586 0.744141,-0.0586 0.193021,0 0.344444,0.0265 0.449218,0.0684 a 0.17399923,0.17399923 0 0 0 0.002,0 c 0.11654,0.0444 0.198577,0.10564 0.257813,0.17969 a 0.17399923,0.17399923 0 0 0 0.0098,0.01 c 0.06732,0.0725 0.111632,0.15506 0.138671,0.25781 0.02912,0.11066 0.04443,0.22731 0.04492,0.35156 -0.0922,-0.0171 -0.187715,-0.0386 -0.27539,-0.0469 -0.155083,-0.0212 -0.303314,-0.0312 -0.445313,-0.0312 -0.298775,-1e-5 -0.588952,0.031 -0.86914,0.0937 -0.280685,0.0576 -0.532773,0.15921 -0.753907,0.30664 -0.2233,0.14195 -0.403787,0.33093 -0.537109,0.56054 a 0.17399923,0.17399923 0 0 0 -0.002,0.004 c -0.130769,0.23845 -0.19336,0.52375 -0.19336,0.84766 1e-6,0.33338 0.05145,0.62472 0.166016,0.86914 a 0.17399923,0.17399923 0 0 0 0.002,0.004 c 0.118641,0.23729 0.283651,0.43386 0.486328,0.58399 a 0.17399923,0.17399923 0 0 0 0.002,0 c 0.207841,0.14846 0.4536,0.25747 0.734376,0.32226 0.276649,0.0639 0.578398,0.0937 0.904296,0.0937 0.481654,0 0.914706,-0.03 1.300782,-0.0918 0.384111,-0.0539 0.671415,-0.10064 0.867187,-0.14258 a 0.17399923,0.17399923 0 0 0 0.136719,-0.16992 v -3.1875 c 0,-0.31967 -0.03716,-0.61676 -0.115234,-0.88868 -0.07282,-0.28397 -0.2028,-0.53223 -0.388672,-0.73437 l -0.002,-0.002 c -0.182585,-0.20464 -0.427022,-0.36255 -0.722656,-0.47071 -0.300704,-0.11002 -0.65963,-0.16015 -1.076172,-0.16015 z m 17.863282,0 c -0.329846,0 -0.653755,0.0659 -0.966797,0.19336 -0.316927,0.12244 -0.601525,0.30974 -0.845703,0.56054 l -0.002,0.002 c -0.245838,0.24643 -0.44224,0.55638 -0.589843,0.92187 a 0.17399923,0.17399923 0 0 0 0,0.002 c -0.143311,0.37262 -0.212891,0.79998 -0.212891,1.2793 0,0.41099 0.05461,0.7942 0.167969,1.14844 a 0.17399923,0.17399923 0 0 0 0,0.002 c 0.114318,0.3501 0.294128,0.65992 0.53125,0.92578 a 0.17399923,0.17399923 0 0 0 0,0.002 c 0.239964,0.26178 0.544388,0.46624 0.90625,0.61523 a 0.17399923,0.17399923 0 0 0 0.002,0.002 c 0.366702,0.14381 0.79216,0.2129 1.271484,0.21289 0.186865,0 0.371059,-0.0103 0.552735,-0.0312 0.17592,-0.0203 0.339946,-0.0459 0.492187,-0.0801 l 0.0098,-0.002 c 0.155455,-0.0274 0.293741,-0.0609 0.412109,-0.0957 a 0.17399923,0.17399923 0 0 0 0.0059,0 c 0.124314,-0.0414 0.223876,-0.0787 0.304687,-0.11914 a 0.17399923,0.17399923 0 0 0 0.09375,-0.18359 l -0.162109,-0.9961 a 0.17399923,0.17399923 0 0 0 -0.240235,-0.13281 c -0.12483,0.0535 -0.309828,0.11001 -0.550781,0.16211 -0.226456,0.0503 -0.483062,0.0762 -0.767578,0.0762 -0.476428,0 -0.815756,-0.10764 -1.042969,-0.30078 -0.181588,-0.16423 -0.281721,-0.39654 -0.335937,-0.67969 h 3.248047 a 0.17399923,0.17399923 0 0 0 0.173828,-0.15625 c 0.0067,-0.0669 0.01114,-0.14285 0.01172,-0.22461 v -0.0137 c 0.0062,-0.0847 0.0098,-0.16218 0.0098,-0.23047 0,-0.91734 -0.211403,-1.63543 -0.658203,-2.12695 -0.436793,-0.48775 -1.05845,-0.73242 -1.818359,-0.73242 z m 17.93164,0 c -0.329846,0 -0.653754,0.0659 -0.966797,0.19336 -0.317773,0.12277 -0.60304,0.31068 -0.847656,0.5625 -0.245838,0.24643 -0.44224,0.55638 -0.589844,0.92187 a 0.17399923,0.17399923 0 0 0 0,0.002 c -0.143311,0.37262 -0.21289,0.79998 -0.21289,1.2793 0,0.41156 0.05675,0.79478 0.169922,1.14844 a 0.17399923,0.17399923 0 0 0 0,0.002 c 0.114124,0.34951 0.291836,0.65954 0.529297,0.92578 a 0.17399923,0.17399923 0 0 0 0,0.002 c 0.239963,0.26178 0.544387,0.46624 0.90625,0.61523 a 0.17399923,0.17399923 0 0 0 0.002,0.002 c 0.366701,0.14381 0.792159,0.2129 1.271484,0.21289 0.186865,0 0.37106,-0.0103 0.552734,-0.0312 0.175921,-0.0203 0.339947,-0.0459 0.492188,-0.0801 l 0.0098,-0.002 c 0.155455,-0.0274 0.293742,-0.0609 0.41211,-0.0957 a 0.17399923,0.17399923 0 0 0 0.0059,0 c 0.124315,-0.0414 0.223877,-0.0787 0.304688,-0.11914 a 0.17399923,0.17399923 0 0 0 0.09375,-0.18359 l -0.160157,-0.9961 a 0.17399923,0.17399923 0 0 0 -0.240234,-0.13281 c -0.124295,0.0533 -0.311597,0.10997 -0.552734,0.16211 -0.226456,0.0503 -0.483063,0.0762 -0.767578,0.0762 -0.47643,0 -0.815756,-0.10764 -1.042969,-0.30078 -0.181589,-0.16423 -0.281721,-0.39654 -0.335938,-0.67969 h 3.25 a 0.17399923,0.17399923 0 0 0 0.173829,-0.15625 c 0.007,-0.07 0.0094,-0.14526 0.0098,-0.22461 v -0.0137 c 0.0062,-0.0847 0.0098,-0.16218 0.0098,-0.23047 0,-0.91734 -0.211403,-1.63543 -0.658203,-2.12695 -0.436793,-0.48775 -1.05845,-0.73242 -1.81836,-0.73242 z m -72.943359,0.0195 c -0.439972,0 -0.84506,0.0413 -1.214844,0.125 -0.352772,0.0748 -0.651845,0.15718 -0.896484,0.24805 a 0.17399923,0.17399923 0 0 0 -0.113281,0.16406 v 5.00586 a 0.17399923,0.17399923 0 0 0 0.173828,0.17383 h 1.216796 a 0.17399923,0.17399923 0 0 0 0.173829,-0.17383 v -4.07422 c 0.0509,-0.0121 0.08313,-0.022 0.166015,-0.0371 0.144788,-0.0252 0.280841,-0.0371 0.404297,-0.0371 0.224546,0 0.416476,0.0202 0.574219,0.0566 a 0.17399923,0.17399923 0 0 0 0.0078,0.002 c 0.17696,0.0328 0.311898,0.0649 0.398438,0.0937 a 0.17399923,0.17399923 0 0 0 0.224609,-0.13086 l 0.210938,-1.02539 a 0.17399923,0.17399923 0 0 0 -0.115235,-0.20117 c -0.06729,-0.0224 -0.150917,-0.0423 -0.25,-0.0625 l -0.01172,-0.002 c -0.104942,-0.0274 -0.213317,-0.0486 -0.324219,-0.0625 h 0.0098 c -0.112069,-0.021 -0.222015,-0.0319 -0.332031,-0.0391 -0.111061,-0.0139 -0.210649,-0.0234 -0.302734,-0.0234 z m 13.298828,0 c -0.439972,0 -0.846879,0.0413 -1.216797,0.125 -0.352772,0.0748 -0.651845,0.15718 -0.896484,0.24805 a 0.17399923,0.17399923 0 0 0 -0.113282,0.16406 v 5.00586 a 0.17399923,0.17399923 0 0 0 0.173829,0.17383 h 1.216797 a 0.17399923,0.17399923 0 0 0 0.173828,-0.17383 v -4.07422 c 0.05156,-0.0122 0.08452,-0.0219 0.167968,-0.0371 0.145032,-0.0252 0.278888,-0.0371 0.402344,-0.0371 0.224546,0 0.416476,0.0202 0.574219,0.0566 a 0.17399923,0.17399923 0 0 0 0.0078,0.002 c 0.17696,0.0328 0.311898,0.0649 0.398438,0.0937 a 0.17399923,0.17399923 0 0 0 0.224609,-0.13086 l 0.212891,-1.02539 A 0.17399923,0.17399923 0 0 0 33.9453,110.54482 c -0.06834,-0.0228 -0.153094,-0.0424 -0.251953,-0.0625 l -0.01172,-0.002 c -0.104942,-0.0274 -0.213318,-0.0486 -0.324219,-0.0625 h 0.0098 c -0.111687,-0.0209 -0.220054,-0.0318 -0.330079,-0.0391 -0.11106,-0.0139 -0.210649,-0.0234 -0.302734,-0.0234 z m 13.935547,0 c -0.411243,0 -0.803912,0.0318 -1.175781,0.0937 -0.36596,0.061 -0.675782,0.12616 -0.931641,0.19531 a 0.17399923,0.17399923 0 0 0 -0.128906,0.16797 v 6.94727 a 0.17399923,0.17399923 0 0 0 0.173828,0.17382 h 1.216797 a 0.17399923,0.17399923 0 0 0 0.173828,-0.17382 v -1.78711 c 0.09596,0.0383 0.176281,0.0819 0.291015,0.11523 0.225892,0.0656 0.470614,0.0957 0.732422,0.0957 0.389084,0 0.74327,-0.0714 1.056641,-0.21679 0.317403,-0.14427 0.585248,-0.34862 0.796875,-0.61133 0.209422,-0.25997 0.368432,-0.56869 0.474609,-0.92188 v -0.002 c 0.113069,-0.35406 0.167969,-0.73952 0.167969,-1.15625 0,-0.43826 -0.06621,-0.83852 -0.201172,-1.19531 l -0.002,-0.004 c -0.127624,-0.35981 -0.31729,-0.66959 -0.568359,-0.92187 l -0.002,-0.002 c -0.245654,-0.25949 -0.547076,-0.45825 -0.896485,-0.59375 -0.351303,-0.13621 -0.744286,-0.20312 -1.177734,-0.20312 z m 15.792969,0 c -0.463798,0 -0.88761,0.0318 -1.273438,0.0937 -0.379775,0.061 -0.690665,0.12534 -0.935547,0.19531 a 0.17399923,0.17399923 0 0 0 -0.126953,0.16797 v 5.08594 a 0.17399923,0.17399923 0 0 0 0.173828,0.17383 h 1.216797 a 0.17399923,0.17399923 0 0 0 0.173828,-0.17383 v -4.08985 c 0.06811,-0.01 0.120333,-0.0192 0.220703,-0.0312 0.160731,-0.0193 0.313688,-0.0273 0.460938,-0.0273 0.191308,0 0.343395,0.0283 0.455078,0.0762 a 0.17399923,0.17399923 0 0 0 0.0098,0.004 c 0.115409,0.042 0.193199,0.10505 0.253906,0.20117 a 0.17399923,0.17399923 0 0 0 0.0059,0.008 c 0.06605,0.0914 0.1179,0.22694 0.148438,0.41016 a 0.17399923,0.17399923 0 0 0 0.002,0.006 c 0.03684,0.17807 0.05664,0.40654 0.05664,0.67969 v 2.76367 a 0.17399923,0.17399923 0 0 0 0.173828,0.17383 h 1.216796 a 0.17399923,0.17399923 0 0 0 0.173829,-0.17383 v -2.95508 c 0,-0.36753 -0.03955,-0.70703 -0.117188,-1.01758 -0.07191,-0.31968 -0.201461,-0.60072 -0.392578,-0.83008 l -0.0039,-0.004 c -0.187379,-0.2381 -0.440964,-0.41841 -0.75,-0.54102 -0.31642,-0.13245 -0.697111,-0.19531 -1.142578,-0.19531 z m 5.998047,0 c -0.463798,0 -0.88947,0.0317 -1.275391,0.0937 -0.379868,0.0611 -0.688958,0.12541 -0.933594,0.19531 A 0.17399923,0.17399923 0 0 0 66.125,110.8125 v 5.08594 a 0.17399923,0.17399923 0 0 0 0.173828,0.17383 h 1.216797 a 0.17399923,0.17399923 0 0 0 0.173828,-0.17383 v -4.08985 c 0.06743,-0.01 0.118821,-0.0192 0.21875,-0.0312 0.16073,-0.0193 0.313688,-0.0273 0.460938,-0.0273 0.191307,0 0.343395,0.0283 0.455078,0.0762 a 0.17399923,0.17399923 0 0 0 0.0098,0.004 c 0.11541,0.042 0.1932,0.10505 0.253907,0.20117 a 0.17399923,0.17399923 0 0 0 0.0059,0.008 c 0.06677,0.0924 0.120033,0.22802 0.150391,0.41016 a 0.17399923,0.17399923 0 0 0 0.002,0.006 c 0.03684,0.17807 0.05664,0.40654 0.05664,0.67969 v 2.76367 a 0.17399923,0.17399923 0 0 0 0.173828,0.17383 h 1.214844 a 0.17399923,0.17399923 0 0 0 0.173828,-0.17383 v -2.95508 c 0,-0.36689 -0.03742,-0.70633 -0.115234,-1.01758 -0.07209,-0.32037 -0.203788,-0.6012 -0.394531,-0.83008 l -0.0039,-0.004 c -0.187378,-0.2381 -0.440963,-0.41841 -0.75,-0.54102 -0.316161,-0.13235 -0.695157,-0.19531 -1.140624,-0.19531 z m 11.835937,0 c -0.463797,0 -0.887609,0.0318 -1.273437,0.0937 -0.379774,0.061 -0.690666,0.12534 -0.935547,0.19531 a 0.17399923,0.17399923 0 0 0 -0.126953,0.16797 v 5.08594 a 0.17399923,0.17399923 0 0 0 0.173828,0.17383 h 1.216796 a 0.17399923,0.17399923 0 0 0 0.173829,-0.17383 v -4.08985 c 0.06811,-0.01 0.120332,-0.0192 0.220703,-0.0312 0.160731,-0.0193 0.313688,-0.0273 0.460937,-0.0273 0.191308,0 0.340905,0.0281 0.453125,0.0762 a 0.17399923,0.17399923 0 0 0 0.0098,0.004 c 0.115409,0.042 0.193199,0.10505 0.253906,0.20117 a 0.17399923,0.17399923 0 0 0 0.0059,0.008 c 0.06677,0.0924 0.120032,0.22802 0.15039,0.41016 a 0.17399923,0.17399923 0 0 0 0.002,0.006 c 0.03684,0.17807 0.05664,0.40654 0.05664,0.67969 v 2.76367 a 0.17399923,0.17399923 0 0 0 0.173828,0.17383 h 1.216797 a 0.17399923,0.17399923 0 0 0 0.173828,-0.17383 v -2.95508 c 0,-0.36753 -0.03955,-0.70703 -0.117187,-1.01758 -0.07191,-0.31968 -0.201461,-0.60072 -0.392579,-0.83008 l -0.0039,-0.004 c -0.18738,-0.2381 -0.440964,-0.41841 -0.75,-0.54102 -0.31642,-0.13245 -0.697109,-0.19531 -1.142578,-0.19531 z m 17.822266,0 c -0.439972,0 -0.846879,0.0413 -1.216797,0.125 -0.352772,0.0748 -0.651845,0.15718 -0.896485,0.24805 a 0.17399923,0.17399923 0 0 0 -0.113281,0.16406 v 5.00586 a 0.17399923,0.17399923 0 0 0 0.173828,0.17383 h 1.216797 a 0.17399923,0.17399923 0 0 0 0.173828,-0.17383 v -4.07422 c 0.05156,-0.0122 0.08452,-0.0219 0.167969,-0.0371 0.145033,-0.0252 0.278887,-0.0371 0.402344,-0.0371 0.224545,0 0.416476,0.0202 0.574218,0.0566 a 0.17399923,0.17399923 0 0 0 0.0078,0.002 c 0.176959,0.0328 0.311896,0.0649 0.398437,0.0937 a 0.17399923,0.17399923 0 0 0 0.22461,-0.13086 l 0.21289,-1.02539 a 0.17399923,0.17399923 0 0 0 -0.115234,-0.20117 c -0.06834,-0.0228 -0.153093,-0.0424 -0.251953,-0.0625 l -0.01172,-0.002 c -0.104941,-0.0274 -0.213316,-0.0486 -0.324218,-0.0625 h 0.0098 c -0.111685,-0.0209 -0.220054,-0.0318 -0.330078,-0.0391 -0.111061,-0.0139 -0.21065,-0.0234 -0.302734,-0.0234 z m 4.412109,0 c -0.42704,0 -0.81511,0.0665 -1.16016,0.20312 -0.34181,0.13531 -0.63753,0.32698 -0.88281,0.57227 a 0.17399923,0.17399923 0 0 0 -0.002,0.002 c -0.23848,0.2457 -0.42249,0.54266 -0.550783,0.88477 a 0.17399923,0.17399923 0 0 0 -0.002,0.002 c -0.121329,0.34257 -0.179688,0.71618 -0.179688,1.11524 0,0.42388 0.0552,0.80558 0.169922,1.14257 a 0.17399923,0.17399923 0 0 0 0,0.004 c 0.120769,0.32679 0.288099,0.60551 0.499999,0.83203 a 0.17399923,0.17399923 0 0 0 0.002,0.002 c 0.21801,0.22529 0.47836,0.39775 0.77539,0.51368 0.30332,0.11554 0.63483,0.17187 0.98828,0.17187 0.26816,0 0.50932,-0.0309 0.72461,-0.0977 0.10178,-0.0305 0.16643,-0.0624 0.25,-0.0937 -0.01,0.33086 -0.0945,0.56439 -0.25195,0.71679 -0.15911,0.15399 -0.45862,0.25391 -0.92383,0.25391 -0.29768,0 -0.57522,-0.0253 -0.83008,-0.0762 h -0.002 c -0.25132,-0.0517 -0.47488,-0.11938 -0.66992,-0.20118 a 0.17399923,0.17399923 0 0 0 -0.23633,0.12305 l -0.2207,1.03516 a 0.17399923,0.17399923 0 0 0 0.11132,0.20117 c 0.25833,0.0908 0.5421,0.16374 0.85157,0.21875 a 0.17399923,0.17399923 0 0 0 0.002,0 c 0.31854,0.0554 0.64334,0.082 0.97461,0.082 0.90359,0 1.59993,-0.1975 2.06641,-0.62695 0.47495,-0.43042 0.70117,-1.10107 0.70117,-1.96875 v -4.55469 a 0.17399923,0.17399923 0 0 0 -0.12891,-0.16797 c -0.25551,-0.0691 -0.56268,-0.13431 -0.92187,-0.19531 -0.36529,-0.062 -0.74961,-0.0937 -1.1543,-0.0937 z m -88.824219,1.34375 c 0.413402,-0.024 0.914855,0.43887 0.66211,0.30273 0.2846,0.14082 0.31542,0.77192 0.214843,0.57617 h -1.84375 c 0.01759,-0.0734 0.02857,-0.14886 0.05469,-0.2207 0.04718,-0.12975 0.11087,-0.23784 0.191406,-0.33594 3.54e-4,-4.3e-4 -3.55e-4,-0.002 0,-0.002 0.08388,-0.0939 0.183364,-0.16972 0.302734,-0.22656 a 0.17399923,0.17399923 0 0 0 0.0059,-0.002 c 0.113164,-0.0593 0.247669,-0.0918 0.412109,-0.0918 z m 60.75,0 c 0.411061,-0.0246 0.91738,0.43908 0.664063,0.30273 0.281835,0.14182 0.313215,0.77172 0.21289,0.57617 h -1.841796 c 0.01712,-0.0733 0.02688,-0.1496 0.05273,-0.2207 0.04672,-0.12848 0.112062,-0.23693 0.193359,-0.33594 3.56e-4,-4.3e-4 -3.56e-4,-0.002 0,-0.002 0.08452,-0.0947 0.181975,-0.16999 0.300781,-0.22656 a 0.17399923,0.17399923 0 0 0 0.0059,-0.002 c 0.113164,-0.0593 0.247669,-0.0918 0.412109,-0.0918 z m 17.931641,0 c 0.411061,-0.0246 0.917378,0.43908 0.664062,0.30273 0.281835,0.14182 0.313216,0.77172 0.212891,0.57617 h -1.841797 c 0.01712,-0.0733 0.02688,-0.1496 0.05273,-0.2207 0.04672,-0.12848 0.112063,-0.23693 0.19336,-0.33594 3.55e-4,-4.3e-4 -3.56e-4,-0.002 0,-0.002 0.08452,-0.0947 0.181976,-0.16999 0.300781,-0.22656 a 0.17399923,0.17399923 0 0 0 0.0059,-0.002 c 0.113166,-0.0593 0.247669,-0.0918 0.41211,-0.0918 z m 10.152348,0.0195 c -0.73572,-0.1683 3.37359,0.47953 0.63086,0.0566 v 2.4668 c -0.0813,0.0464 -0.16863,0.0927 -0.29883,0.13281 a 0.17399923,0.17399923 0 0 0 -0.002,0 c -0.14992,0.048 -0.3128,0.0742 -0.49023,0.0742 -0.31428,0 -0.55025,-0.0972 -0.74609,-0.29688 l -0.002,-0.002 c -0.17875,-0.19625 -0.28515,-0.52586 -0.28515,-1.01562 0,-0.4474 0.10758,-0.78536 0.3125,-1.03711 a 0.17399923,0.17399923 0 0 0 0.002,-0.002 c 0.20153,-0.25334 0.47543,-0.37695 0.87891,-0.37695 z M 46.548828,111.75 c 0.510976,0 0.837592,0.13489 1.039063,0.38672 a 0.17399923,0.17399923 0 0 0 0.002,0.002 c 0.215541,0.26215 0.333984,0.64005 0.333984,1.15625 0,0.48557 -0.09933,0.8531 -0.28125,1.11719 a 0.17399923,0.17399923 0 0 0 -0.002,0.004 c -0.168539,0.2528 -0.41765,0.375 -0.820313,0.375 -0.18293,0 -0.354074,-0.0295 -0.517578,-0.084 -0.129025,-0.0501 -0.221378,-0.10064 -0.304687,-0.15039 v -2.75391 c 0.06664,-0.0127 0.133456,-0.0295 0.199219,-0.0332 a 0.17399923,0.17399923 0 0 0 0.0078,0 c 0.121531,-0.0128 0.236043,-0.0195 0.34375,-0.0195 z m 39.794922,0 c 0.403173,0 0.651965,0.12053 0.820312,0.37305 a 0.17399923,0.17399923 0 0 0 0.002,0.004 c 0.181613,0.26364 0.28125,0.63437 0.28125,1.12696 0,0.50851 -0.120568,0.88609 -0.34375,1.15625 -0.222273,0.26253 -0.510621,0.39062 -0.919922,0.39062 -0.18956,0 -0.351921,-0.009 -0.486328,-0.0215 -0.07158,-0.0108 -0.117882,-0.0212 -0.173828,-0.0312 v -2.77344 c 0.08293,-0.0488 0.172891,-0.0975 0.302734,-0.14258 0.162431,-0.0542 0.333523,-0.082 0.517578,-0.082 z m -60.884766,1.18555 h 0.94336 c 0.491592,0 0.862159,0.0786 1.113281,0.21289 0.233907,0.12511 0.341797,0.3171 0.341797,0.66992 0,0.19403 -0.04318,0.33505 -0.119141,0.44141 a 0.17399923,0.17399923 0 0 0 -0.0039,0.006 c -0.07649,0.11474 -0.180672,0.20612 -0.324219,0.28126 -0.139378,0.0697 -0.316789,0.12275 -0.53125,0.15429 -0.211362,0.032 -0.445473,0.0488 -0.699218,0.0488 -0.131409,0 -0.274921,-0.003 -0.433594,-0.01 -0.101462,-0.004 -0.19348,-0.0122 -0.28711,-0.0195 z m 11.365235,0.78515 c 1.219927,0.18675 -2.054197,-0.46887 0.539062,0.0566 v 1.04688 c -0.172444,0.0254 -0.373159,0.0469 -0.679687,0.0469 -0.287691,0 -0.502387,-0.0533 -0.646485,-0.13867 -0.122519,-0.0792 -0.185547,-0.20258 -0.185547,-0.45117 0,-0.1203 0.02635,-0.20291 0.06836,-0.26172 a 0.17399923,0.17399923 0 0 0 0.0039,-0.006 c 0.05169,-0.0775 0.112091,-0.12929 0.19336,-0.16992 0.09695,-0.0452 0.203528,-0.0782 0.320312,-0.0957 0.132417,-0.0189 0.260605,-0.0274 0.386719,-0.0274 z m 20.001953,0 c 1.219927,0.18675 -2.054197,-0.46887 0.539062,0.0566 v 1.04688 c -0.172444,0.0254 -0.373159,0.0469 -0.679687,0.0469 -0.287691,0 -0.502387,-0.0533 -0.646485,-0.13867 -0.122519,-0.0792 -0.185546,-0.20258 -0.185546,-0.45117 0,-0.12183 0.02533,-0.20421 0.06641,-0.26172 a 0.17399923,0.17399923 0 0 0 0.0039,-0.006 c 0.05083,-0.0762 0.113288,-0.12891 0.195313,-0.16992 0.09695,-0.0452 0.203528,-0.0782 0.320312,-0.0957 0.132417,-0.0189 0.260606,-0.0274 0.386719,-0.0274 z"
       id="text8520"
       inkscape:connector-curvature="0" />
  </g>
</svg>
