<?xml version="1.0" encoding="UTF-8" standalone="no"?>
<!-- Generator: Adobe Illustrator 13.0.1, SVG Export Plug-In . SVG Version: 6.00 Build 14948)  -->

<svg
   xmlns:dc="http://purl.org/dc/elements/1.1/"
   xmlns:cc="http://creativecommons.org/ns#"
   xmlns:rdf="http://www.w3.org/1999/02/22-rdf-syntax-ns#"
   xmlns:svg="http://www.w3.org/2000/svg"
   xmlns="http://www.w3.org/2000/svg"
   xmlns:sodipodi="http://sodipodi.sourceforge.net/DTD/sodipodi-0.dtd"
   xmlns:inkscape="http://www.inkscape.org/namespaces/inkscape"
   version="1.1"
   x="0px"
   y="0px"
   width="28.606005"
   height="23.980062"
   viewBox="0 0 28.606005 23.980062"
   enable-background="new 0 0 120 40"
   xml:space="preserve"
   id="svg60"
   sodipodi:docname="reddit-alien-head.svg"
   inkscape:version="0.92.2 (5c3e80d, 2017-08-06)"><metadata
     id="metadata66"><rdf:RDF><cc:Work
         rdf:about=""><dc:format>image/svg+xml</dc:format><dc:type
           rdf:resource="http://purl.org/dc/dcmitype/StillImage" /><dc:title></dc:title></cc:Work></rdf:RDF></metadata><defs
     id="defs64" /><sodipodi:namedview
     pagecolor="#ffffff"
     bordercolor="#666666"
     borderopacity="1"
     objecttolerance="10"
     gridtolerance="10"
     guidetolerance="10"
     inkscape:pageopacity="0"
     inkscape:pageshadow="2"
     inkscape:window-width="1920"
     inkscape:window-height="1053"
     id="namedview62"
     showgrid="false"
     inkscape:zoom="20.4"
     inkscape:cx="7.6129783"
     inkscape:cy="9.7729698"
     inkscape:window-x="0"
     inkscape:window-y="27"
     inkscape:window-maximized="1"
     inkscape:current-layer="svg60"
     showguides="false"
     inkscape:pagecheckerboard="true"
     fit-margin-top="0"
     fit-margin-left="0"
     fit-margin-right="0"
     fit-margin-bottom="0"><inkscape:grid
       type="xygrid"
       id="grid4824"
       originx="-46.431999"
       originy="-15.910938" /></sodipodi:namedview><g
     id="Layer_2"
     transform="translate(-46.431998,-0.10899991)"><g
       id="g12"><g
         id="g6" /><g
         id="g10" /></g><g
       id="g22"><g
         id="g16" /><g
         id="g20" /></g><circle
       cx="49.683998"
       cy="11.836"
       r="2.7019999"
       id="circle24"
       style="fill:#ffffff;stroke:#ffffff;stroke-width:1.10000002;stroke-opacity:1" /><circle
       cx="71.786003"
       cy="11.836"
       r="2.7019999"
       id="circle26"
       style="fill:#ffffff;stroke:#ffffff;stroke-width:1.10000002;stroke-opacity:1" /><path
       d="m 68.226,2.352 c 0,0 0,0 -5.404,-1.272 l -1.986,6.278"
       id="path28"
       style="fill:none;stroke:#ffffff;stroke-width:1.10000002;stroke-linecap:round;stroke-linejoin:round;stroke-opacity:1"
       inkscape:connector-curvature="0" /><circle
       cx="70.431"
       cy="2.789"
       r="2.1300001"
       id="circle32"
       style="fill:#ffffff;stroke:#ffffff;stroke-width:1.10000002;stroke-opacity:1" /><g
       id="g42"><g
         id="g36" /><g
         id="g40" /></g><path
       style="fill:#ffffff;stroke:#ffff00;stroke-width:1.10000002;stroke-opacity:0"
       d="M 14.244141,7.4550781 A 12.238,7.987 0 0 0 2.0058594,15.443359 12.238,7.987 0 0 0 14.244141,23.429688 12.238,7.987 0 0 0 26.482422,15.443359 12.238,7.987 0 0 0 14.244141,7.4550781 Z M 9.9960938,12.453125 a 1.4299999,1.4299999 0 0 1 1.4296872,1.429687 1.4299999,1.4299999 0 0 1 -1.4296872,1.431641 1.4299999,1.4299999 0 0 1 -1.4316407,-1.431641 1.4299999,1.4299999 0 0 1 1.4316407,-1.429687 z m 8.6230472,0 a 1.431,1.431 0 0 1 1.429687,1.429687 1.431,1.431 0 0 1 -1.429687,1.431641 1.431,1.431 0 0 1 -1.431641,-1.431641 1.431,1.431 0 0 1 1.431641,-1.429687 z m -8.548829,6.111328 a 0.55005501,0.55005501 0 0 1 0.394532,0.166016 c 0.881761,0.881761 2.448977,1.109375 3.822265,1.109375 a 0.550781,0.550781 0 0 1 0.02149,0 0.550781,0.550781 0 0 1 0.0098,0 c 1.374325,0 2.941226,-0.227211 3.824219,-1.109375 a 0.55005501,0.55005501 0 0 1 0.378906,-0.166016 0.55005501,0.55005501 0 0 1 0.398438,0.943359 c -1.251007,1.249836 -3.121888,1.433594 -4.601563,1.433594 a 0.550781,0.550781 0 0 1 -0.02344,0 0.550781,0.550781 0 0 1 -0.0078,0 c -1.478712,0 -3.351323,-0.183354 -4.6015621,-1.433594 a 0.55005501,0.55005501 0 0 1 0.3847651,-0.943359 z"
       transform="translate(46.431998,0.10899991)"
       id="ellipse44"
       inkscape:connector-curvature="0" /><g
       id="g56" /></g><g
     id="Layer_3"
     transform="translate(-46.431998,-0.10899991)" /></svg>