<?xml version="1.0" standalone="no"?>
<!DOCTYPE svg PUBLIC "-//W3C//DTD SVG 20010904//EN"
 "http://www.w3.org/TR/2001/REC-SVG-20010904/DTD/svg10.dtd">
<svg version="1.0" xmlns="http://www.w3.org/2000/svg"
 width="512.000000pt" height="512.000000pt" viewBox="0 0 512.000000 512.000000"
 preserveAspectRatio="xMidYMid meet">
<metadata>
Created by potrace 1.11, written by Peter Selinger 2001-2013
</metadata>
<g transform="translate(0.000000,512.000000) scale(0.100000,-0.100000)"
fill="#000000" stroke="none">
<path d="M2429 5016 c-2 -2 -42 -6 -88 -10 -421 -33 -898 -218 -1246 -485
-484 -370 -811 -895 -924 -1485 -11 -56 -23 -131 -26 -168 -3 -37 -8 -77 -11
-90 -2 -13 -5 -97 -5 -188 0 -153 3 -222 16 -310 3 -19 7 -51 9 -70 8 -60 43
-221 65 -300 12 -41 23 -82 26 -90 22 -79 97 -254 164 -385 157 -301 411 -603
683 -809 73 -56 226 -156 237 -156 6 0 11 -3 11 -8 0 -4 15 -13 32 -21 18 -8
51 -25 72 -39 22 -13 44 -25 50 -26 6 -2 36 -14 66 -28 136 -64 391 -152 475
-163 11 -1 27 -5 35 -8 8 -3 31 -8 50 -11 19 -3 44 -7 55 -10 211 -41 565 -41
794 0 20 3 47 8 61 10 55 9 66 12 80 17 16 6 64 18 92 23 43 9 245 78 305 105
35 16 71 29 79 29 8 0 14 4 14 9 0 5 11 11 23 15 58 14 292 156 430 259 135
101 335 295 419 405 24 31 49 63 56 71 8 8 26 32 40 54 15 22 34 50 42 63 71
106 216 376 225 419 1 5 7 24 15 40 7 17 16 39 21 50 12 29 50 147 55 169 2
10 10 42 18 70 19 69 43 180 51 241 4 28 8 61 10 75 2 14 7 70 11 125 68 985
-453 1900 -1337 2348 -198 101 -475 196 -649 222 -25 4 -54 9 -65 11 -11 2
-40 7 -65 10 -25 3 -56 8 -70 10 -28 6 -396 14 -401 10z m666 -1405 c3 -2 57
-9 121 -15 l115 -11 -90 -73 c-51 -41 -91 -81 -91 -90 1 -10 11 -63 24 -119
13 -60 18 -100 12 -96 -6 4 -51 33 -99 65 l-88 59 -101 -61 c-55 -33 -103 -58
-106 -55 -3 3 8 55 25 115 l30 111 -95 82 -96 82 34 2 c19 2 76 5 125 9 l90 6
50 109 49 109 44 -112 c23 -62 45 -114 47 -117z m-945 112 c23 -60 45 -112 49
-116 5 -5 59 -14 121 -20 l114 -12 -92 -74 c-51 -41 -92 -75 -92 -76 0 -1 11
-53 25 -115 14 -62 25 -115 25 -117 0 -3 -43 25 -95 61 -52 36 -98 66 -101 66
-4 0 -51 -27 -106 -60 -54 -33 -100 -60 -102 -60 -2 0 9 52 26 117 24 95 27
118 16 128 -7 6 -50 44 -96 83 l-82 72 48 0 c27 0 83 3 125 6 l75 7 49 108
c26 60 49 109 50 109 1 0 20 -48 43 -107z m475 -703 c-3 -6 -1 -10 5 -10 7 0
10 -7 6 -15 -3 -8 -2 -15 2 -15 5 0 19 -29 31 -64 l23 -64 76 -8 c42 -3 97 -9
120 -13 l44 -6 -91 -73 c-50 -40 -91 -78 -91 -85 0 -7 9 -55 20 -106 12 -52
19 -98 18 -102 -2 -5 -43 18 -93 51 -49 33 -93 60 -97 60 -4 0 -51 -27 -105
-59 -54 -33 -99 -56 -101 -51 -2 5 8 52 22 103 14 52 26 102 26 111 0 8 -41
51 -91 93 l-92 78 54 7 c30 3 84 6 121 7 l68 1 36 79 c29 64 39 78 57 77 18
-1 22 4 20 24 -2 22 -1 23 8 7 5 -9 7 -22 4 -27z m-25 15 c11 -13 10 -14 -4
-9 -9 3 -16 10 -16 15 0 13 6 11 20 -6z m-846 -17 c-3 -13 -3 -20 2 -15 4 4
22 -30 39 -75 l30 -83 80 -8 c44 -4 97 -11 118 -15 l37 -7 -90 -70 c-103 -80
-98 -61 -61 -222 12 -54 15 -80 7 -76 -6 4 -50 33 -98 65 l-88 58 -105 -64
c-58 -36 -105 -62 -105 -58 1 22 14 51 21 46 5 -3 6 1 3 9 -4 12 10 84 32 158
3 11 -26 42 -91 97 l-95 80 33 6 c17 3 68 6 112 7 44 1 85 4 92 6 6 3 24 33
39 68 15 36 31 62 35 59 5 -3 6 2 3 10 -3 9 -1 16 6 16 6 0 8 5 4 13 -5 8 -3
8 9 -2 14 -11 18 -11 23 3 9 24 16 19 8 -6z m1752 13 c-3 -5 0 -14 8 -20 11
-9 15 -9 20 1 3 7 3 2 0 -11 -4 -17 -3 -21 6 -16 9 5 10 1 5 -15 -5 -14 -3
-20 3 -16 6 3 17 -15 27 -44 9 -27 20 -50 23 -51 4 0 59 -6 122 -12 l114 -12
-92 -73 c-101 -81 -100 -79 -77 -177 20 -80 19 -91 0 -75 -13 11 -18 11 -28 1
-9 -10 -8 -12 8 -9 11 1 20 -2 20 -9 0 -6 4 -15 9 -20 5 -5 6 -3 2 5 -4 6 -2
12 3 12 6 0 11 -7 11 -15 0 -8 -2 -15 -4 -15 -2 0 -43 27 -92 60 -48 33 -91
60 -95 60 -5 0 -52 -27 -106 -59 -54 -33 -99 -58 -101 -57 -1 2 3 26 10 55 8
34 14 47 20 39 5 -8 6 -3 3 12 -3 14 1 46 9 72 l14 48 -96 82 c-83 72 -93 83
-72 85 14 1 69 5 124 9 l99 6 30 69 c17 37 35 65 40 62 6 -4 8 1 4 11 -4 9 -3
14 2 11 5 -3 12 -1 16 5 3 5 8 10 11 10 3 0 3 -4 0 -9z m-1231 -836 c15 -44
35 -85 42 -92 8 -6 59 -15 114 -19 55 -3 102 -10 104 -14 3 -5 -35 -40 -84
-79 l-88 -71 24 -106 c13 -59 22 -110 21 -115 -2 -4 -45 21 -97 56 -52 36 -97
63 -100 61 -3 -2 -49 -30 -101 -61 -52 -31 -98 -59 -102 -61 -4 -3 6 44 22
103 16 60 30 115 30 123 0 8 -41 49 -90 90 -49 41 -90 78 -90 83 0 4 33 7 74
7 40 0 95 3 121 7 l47 6 40 86 c22 47 44 97 50 111 l10 25 12 -30 c7 -16 25
-66 41 -110z m882 121 c-3 -8 -2 -16 2 -18 5 -2 24 -46 43 -98 l36 -95 53 -7
c30 -4 83 -11 119 -15 l65 -8 -93 -74 c-61 -50 -91 -80 -88 -90 6 -20 46 -209
46 -216 0 -3 -42 24 -94 60 -52 36 -97 65 -101 65 -4 0 -52 -27 -107 -60 -55
-34 -102 -59 -104 -57 -2 2 9 55 26 118 16 63 30 114 30 115 0 1 -42 36 -94
80 -52 43 -93 80 -92 82 2 2 57 6 122 10 l119 7 33 70 c19 39 38 71 42 73 5 2
6 10 3 19 -5 12 -3 14 7 8 8 -5 11 -4 7 3 -9 13 2 42 15 42 6 0 8 -6 5 -14z"/>
<path d="M3363 2531 c-13 -21 -46 -24 -39 -4 3 8 1 11 -4 8 -18 -11 -11 -34
10 -32 21 1 57 33 49 42 -3 2 -10 -4 -16 -14z"/>
</g>
</svg>
